<svg id="instant-refund-ico" xmlns="http://www.w3.org/2000/svg" width="36.778" height="36.778" viewBox="0 0 36.778 36.778">
  <path id="circle2492" d="M22.881,9.587a7.472,7.472,0,1,1-7.472-7.472,7.472,7.472,0,0,1,7.472,7.472Z" transform="translate(9.302 2.479)" fill="#ffca28"/>
  <path id="circle2496" d="M10.752,2.866A7.469,7.469,0,1,0,21.213,13.4,7.467,7.467,0,0,1,10.752,2.866Z" transform="translate(9.302 3.359)" fill="#ecb200"/>
  <path id="rect2485" d="M.839,11.112H6.011a.573.573,0,0,1,.575.575V22.03a.573.573,0,0,1-.575.575H.839a.573.573,0,0,1-.575-.575V11.687A.573.573,0,0,1,.839,11.112Z" transform="translate(0.31 13.023)" fill="#549ad4"/>
  <path id="rect2489" d="M.839,11.112a.573.573,0,0,0-.575.575V22.03a.573.573,0,0,0,.575.575H6.011a.573.573,0,0,0,.575-.575v-.575h-4.6a.573.573,0,0,1-.575-.575V11.112Z" transform="translate(0.31 13.023)" fill="#3588cb"/>
  <path id="path2475" d="M3.2,12.823V21.1a18.147,18.147,0,0,1,3.4-.433c1.7,0,3.751,2.873,6.321,2.873,2.873,0,15.249-7.344,15.249-7.344a1.5,1.5,0,0,0,.841-1.85,1.447,1.447,0,0,0-1.85-.841l-9.068,3.139L18,16.671a1.713,1.713,0,0,0-.826-1.807L11.2,11.416A5.951,5.951,0,0,0,8.321,10.8c-1.31,0-3.029.786-5.122,2.018Z" transform="translate(3.748 12.662)" fill="#ffc6a0"/>
  <path id="path2482" d="M6.6,17.658a18.148,18.148,0,0,0-3.4.433V19.24a18.147,18.147,0,0,1,3.4-.433c1.7,0,3.751,2.873,6.321,2.873,2.873,0,15.249-7.344,15.249-7.344a1.5,1.5,0,0,0,.841-1.85c-.013-.034-.031-.062-.046-.094a1.779,1.779,0,0,1-.795.795S15.79,20.531,12.916,20.531c-2.57,0-4.618-2.873-6.321-2.873Z" transform="translate(3.748 14.522)" fill="#ffaf7a"/>
  <path id="path2587" d="M24.709,1.15a10.916,10.916,0,1,1,0,21.832h-.333l.741-.737a.575.575,0,0,0-.428-.982.552.552,0,0,0-.387.167l-1.723,1.723a.575.575,0,0,0,0,.814L24.3,25.689a.575.575,0,0,0,.815-.81l-.746-.746h.339A12.066,12.066,0,1,0,24.709,0h-.055a.576.576,0,0,0,.055,1.149Zm0,2.873a8.044,8.044,0,1,0,8.047,8.041,8.04,8.04,0,0,0-8.047-8.041Zm0,1.149a6.894,6.894,0,1,1-6.9,6.892,6.891,6.891,0,0,1,6.9-6.892ZM12.068,22.894a10.483,10.483,0,0,0-4.611,1.635,1.153,1.153,0,0,0-1.138-.97H1.149A1.152,1.152,0,0,0,0,24.71V35.051A1.147,1.147,0,0,0,1.149,36.2H6.32a1.147,1.147,0,0,0,1.15-1.149v-.809a16.243,16.243,0,0,1,2.871-.336,5.871,5.871,0,0,1,2.512,1.332,6.936,6.936,0,0,0,3.814,1.54,11.806,11.806,0,0,0,3.826-1.2c1.587-.7,3.411-1.623,5.145-2.545,3.454-1.836,6.518-3.654,6.544-3.671a2.067,2.067,0,0,0,1.109-2.56,2.018,2.018,0,0,0-2.575-1.18L22.3,28.537a2.272,2.272,0,0,0-1.1-1.507l-5.964-3.444a6.48,6.48,0,0,0-3.173-.691Zm0,1.149a5.514,5.514,0,0,1,2.587.531l5.978,3.449a1.151,1.151,0,0,1-1.15,1.993l-3.457-2a.576.576,0,0,0-.577,1l3.457,1.993a2.289,2.289,0,0,0,3.139-.839,2.359,2.359,0,0,0,.181-.389l8.868-3.067a.871.871,0,0,1,1.125.5.943.943,0,0,1-.584,1.148s-3.1,1.838-6.539,3.667c-1.719.914-3.528,1.827-5.07,2.506a11.406,11.406,0,0,1-3.359,1.1,5.9,5.9,0,0,1-3.16-1.336c-.984-.675-2.129-1.56-3.165-1.535a16.374,16.374,0,0,0-2.871.316V25.842c1.956-1.13,3.489-1.8,4.6-1.8ZM1.149,24.71H6.32V35.051H1.149Zm1.724,8.045a.575.575,0,1,0,.575.575A.575.575,0,0,0,2.873,32.754Z" transform="translate(0 0)"/>
  <g id="rupee" transform="translate(-34.035 8.525)">
    <g id="Group_76989" data-name="Group 76989" transform="translate(56.365)">
      <path id="Path_141207" data-name="Path 141207" d="M61.189,1.959H60.083A2.18,2.18,0,0,0,59.21.435h1.979a.218.218,0,0,0,0-.435H56.583a.218.218,0,0,0,0,.435H57.9a1.759,1.759,0,0,1,1.744,1.524H56.583a.218.218,0,0,0,0,.435h3.063A1.762,1.762,0,0,1,57.9,3.94H56.585a.221.221,0,0,0-.218.224.225.225,0,0,0,.067.157l3.294,3.115a.217.217,0,0,0,.307-.009.222.222,0,0,0-.009-.311l-2.9-2.741H57.9a2.2,2.2,0,0,0,2.184-1.981h1.106a.218.218,0,0,0,0-.435Z" transform="translate(-56.365 0)" stroke="#000" stroke-width="0.5"/>
    </g>
  </g>
</svg>
